<?xml version="1.0" standalone="no"?>
<!DOCTYPE svg PUBLIC "-//W3C//DTD SVG 20010904//EN"
 "http://www.w3.org/TR/2001/REC-SVG-20010904/DTD/svg10.dtd">
<svg version="1.0" xmlns="http://www.w3.org/2000/svg"
 width="150.000000pt" height="150.000000pt" viewBox="0 0 300.000000 150.000000"
 preserveAspectRatio="xMidYMid meet">

<g transform="translate(0.000000,150.000000) scale(0.100000,-0.100000)"
fill="#fff" stroke="none">
<path d="M450 1300 l0 -70 110 0 110 0 0 -455 0 -455 75 0 75 0 0 525 0 525
-185 0 -185 0 0 -70z"/>
<path d="M1323 1346 c-183 -42 -317 -159 -379 -332 -28 -77 -33 -216 -9 -303
49 -187 206 -336 397 -377 48 -10 188 -13 603 -14 297 0 591 3 653 7 l112 6 0
64 0 63 -648 0 c-712 0 -713 0 -811 61 -62 37 -113 95 -149 169 -24 49 -27 66
-27 160 0 99 2 109 33 172 38 77 101 139 178 174 239 111 497 -24 547 -285
l12 -61 63 0 c75 0 79 5 62 95 -45 237 -237 400 -485 411 -56 2 -113 -2 -152
-10z"/>
<path d="M2024 1330 c-57 -23 -72 -101 -26 -141 l27 -24 -22 26 c-43 48 -25
112 38 135 19 7 27 13 19 13 -8 0 -25 -4 -36 -9z"/>
<path d="M2092 1319 c10 -5 24 -19 33 -32 8 -12 15 -17 15 -11 0 15 -39 54
-53 54 -7 0 -4 -5 5 -11z"/>
<path d="M2030 1250 c0 -27 4 -50 8 -50 4 0 8 22 7 50 0 27 -3 50 -7 50 -5 0
-8 -22 -8 -50z"/>
<path d="M2074 1293 c4 -7 1 -21 -6 -32 -11 -18 -10 -24 10 -43 12 -12 22 -17
22 -11 0 6 -7 16 -15 23 -11 9 -12 16 -2 31 9 14 9 21 -2 31 -10 9 -12 9 -7 1z"/>
<path d="M2131 1219 c-1 -23 -26 -41 -69 -50 l-37 -7 32 -1 c37 -1 89 37 80
60 -4 11 -6 11 -6 -2z"/>
<path d="M1368 1166 c-192 -42 -306 -247 -237 -430 27 -73 96 -148 167 -183
l57 -28 673 -3 673 -3 -3 68 -3 68 -667 5 -666 5 -38 31 c-121 97 -96 268 48
328 52 22 86 20 144 -9 55 -28 92 -75 101 -129 l6 -36 69 0 70 0 -7 47 c-16
106 -82 196 -178 242 -75 36 -134 44 -209 27z"/>
<path d="M310 1090 l0 -70 70 0 70 0 0 -350 0 -350 70 0 70 0 0 420 0 420
-140 0 -140 0 0 -70z"/>
</g>
</svg>
